<svg width="184" height="32" viewBox="0 0 184 32" fill="none" xmlns="http://www.w3.org/2000/svg">
<path d="M23.755 18.2549H22.965L22.685 17.9849C23.665 16.8449 24.255 15.3649 24.255 13.7549C24.255 10.1649 21.345 7.25488 17.755 7.25488C14.165 7.25488 11.255 10.1649 11.255 13.7549C11.255 17.3449 14.165 20.2549 17.755 20.2549C19.365 20.2549 20.845 19.6649 21.985 18.6849L22.255 18.9649V19.7549L27.255 24.7449L28.745 23.2549L23.755 18.2549ZM17.755 18.2549C15.265 18.2549 13.255 16.2449 13.255 13.7549C13.255 11.2649 15.265 9.25488 17.755 9.25488C20.245 9.25488 22.255 11.2649 22.255 13.7549C22.255 16.2449 20.245 18.2549 17.755 18.2549Z" fill="#0C0C0C"/>
<path d="M74.39 19.06C72.71 18.2 70.53 17.5 68 17.5C65.47 17.5 63.29 18.2 61.61 19.06C60.61 19.57 60 20.6 60 21.72V24.5H76V21.72C76 20.6 75.39 19.57 74.39 19.06ZM74 22.5H62V21.72C62 21.34 62.2 21 62.52 20.84C63.71 20.23 65.63 19.5 68 19.5C70.37 19.5 72.29 20.23 73.48 20.84C73.8 21 74 21.34 74 21.72V22.5Z" fill="#202020"/>
<path d="M68 16.5C70.21 16.5 72 14.71 72 12.5C72 11.13 72 9 72 9C72 8.17 71.33 7.5 70.5 7.5C69.98 7.5 69.52 7.77 69.25 8.17C68.98 7.77 68.52 7.5 68 7.5C67.48 7.5 67.02 7.77 66.75 8.17C66.48 7.77 66.02 7.5 65.5 7.5C64.67 7.5 64 8.17 64 9C64 9 64 11.12 64 12.5C64 14.71 65.79 16.5 68 16.5ZM66 10H70V12.5C70 13.6 69.1 14.5 68 14.5C66.9 14.5 66 13.6 66 12.5V10Z" fill="#202020"/>
<path d="M115.223 23.1157L115.222 23.1144C112.627 20.7612 110.554 18.879 109.118 17.1233C107.693 15.3817 107 13.8867 107 12.3252C107 9.79748 108.972 7.8252 111.5 7.8252C112.937 7.8252 114.332 8.49913 115.239 9.56353L116 10.4576L116.761 9.56353C117.668 8.49913 119.063 7.8252 120.5 7.8252C123.028 7.8252 125 9.79748 125 12.3252C125 13.8867 124.307 15.3817 122.882 17.1248C121.446 18.8818 119.373 20.7661 116.779 23.1241C116.778 23.1245 116.778 23.1248 116.777 23.1251L116.003 23.8252L115.223 23.1157Z" fill="white" stroke="#202020" stroke-width="2"/>
<path d="M170 10H168C168 7.79 166.21 6 164 6C161.79 6 160 7.79 160 10H158C156.9 10 156 10.9 156 12V24C156 25.1 156.9 26 158 26H170C171.1 26 172 25.1 172 24V12C172 10.9 171.1 10 170 10ZM164 8C165.1 8 166 8.9 166 10H162C162 8.9 162.9 8 164 8ZM170 24H158V12H160V14C160 14.55 160.45 15 161 15C161.55 15 162 14.55 162 14V12H166V14C166 14.55 166.45 15 167 15C167.55 15 168 14.55 168 14V12H170V24Z" fill="#202020"/>
</svg>
