<svg width="156" height="24" viewBox="0 0 156 24" fill="none" xmlns="http://www.w3.org/2000/svg">
<path d="M21.9486 9.48C22.9406 9.48 23.8153 9.688 24.5726 10.104C25.33 10.5093 25.922 11.1387 26.3486 11.992C26.786 12.8453 27.0046 13.944 27.0046 15.288V23H22.2206V16.024C22.2206 15.1067 22.082 14.3653 21.8046 13.8C21.5273 13.2347 20.978 12.952 20.1566 12.952C19.666 12.952 19.234 13.08 18.8606 13.336C18.4873 13.592 18.1993 13.9493 17.9966 14.408C17.794 14.856 17.6926 15.3947 17.6926 16.024V23H13.2286V16.024C13.2286 15.1067 13.074 14.3653 12.7646 13.8C12.466 13.2347 11.9326 12.952 11.1646 12.952C10.674 12.952 10.242 13.08 9.86863 13.336C9.49529 13.5813 9.20729 13.9333 9.00463 14.392C8.81263 14.84 8.71663 15.384 8.71663 16.024V23H3.88463V9.864H8.71663V11.736C8.84463 11.4053 9.12196 11.0693 9.54863 10.728C9.98596 10.376 10.5246 10.0827 11.1646 9.848C11.8046 9.60267 12.482 9.48 13.1966 9.48C13.9753 9.48 14.626 9.59733 15.1486 9.832C15.6713 10.056 16.098 10.36 16.4286 10.744C16.77 11.128 17.042 11.544 17.2446 11.992C17.394 11.608 17.6873 11.224 18.1246 10.84C18.5726 10.4453 19.1273 10.12 19.7886 9.864C20.4606 9.608 21.1806 9.48 21.9486 9.48ZM39.7101 23.384C38.2701 23.384 36.9901 23.0907 35.8701 22.504C34.7608 21.9067 33.8861 21.0907 33.2461 20.056C32.6168 19.0107 32.3021 17.816 32.3021 16.472C32.3021 15.128 32.6168 13.9333 33.2461 12.888C33.8861 11.832 34.7608 11 35.8701 10.392C36.9901 9.784 38.2701 9.48 39.7101 9.48C41.1501 9.48 42.4195 9.784 43.5181 10.392C44.6168 11 45.4755 11.832 46.0941 12.888C46.7128 13.9333 47.0221 15.128 47.0221 16.472C47.0221 17.816 46.7128 19.0107 46.0941 20.056C45.4755 21.0907 44.6168 21.9067 43.5181 22.504C42.4195 23.0907 41.1501 23.384 39.7101 23.384ZM39.7101 19.384C40.2648 19.384 40.7448 19.2613 41.1501 19.016C41.5555 18.7707 41.8701 18.424 42.0941 17.976C42.3181 17.528 42.4301 17.0213 42.4301 16.456C42.4301 15.88 42.3181 15.368 42.0941 14.92C41.8701 14.472 41.5555 14.12 41.1501 13.864C40.7448 13.608 40.2648 13.48 39.7101 13.48C39.1555 13.48 38.6701 13.608 38.2541 13.864C37.8488 14.12 37.5288 14.472 37.2941 14.92C37.0701 15.368 36.9581 15.88 36.9581 16.456C36.9581 17.0213 37.0701 17.528 37.2941 17.976C37.5288 18.424 37.8488 18.7707 38.2541 19.016C38.6701 19.2613 39.1555 19.384 39.7101 19.384ZM58.3854 23.384C57.116 23.384 56.012 23.0747 55.0734 22.456C54.1347 21.8267 53.404 20.9893 52.8814 19.944C52.3694 18.888 52.1134 17.72 52.1134 16.44C52.1134 15.16 52.3694 13.9973 52.8814 12.952C53.404 11.896 54.1347 11.0533 55.0734 10.424C56.012 9.79467 57.116 9.48 58.3854 9.48C59.228 9.48 59.9747 9.61333 60.6254 9.88C61.276 10.136 61.804 10.4453 62.2094 10.808C62.6147 11.16 62.86 11.4853 62.9454 11.784V0.983999H67.8094V23H62.9934V20.872C62.7907 21.2667 62.46 21.6613 62.0014 22.056C61.5427 22.44 61.004 22.7547 60.3854 23C59.7667 23.256 59.1 23.384 58.3854 23.384ZM59.8734 19.56C60.46 19.56 60.9827 19.4267 61.4414 19.16C61.9107 18.8933 62.2787 18.5253 62.5454 18.056C62.812 17.576 62.9454 17.0373 62.9454 16.44C62.9454 15.8427 62.812 15.3093 62.5454 14.84C62.2787 14.36 61.9107 13.9867 61.4414 13.72C60.9827 13.4427 60.46 13.304 59.8734 13.304C59.308 13.304 58.796 13.4427 58.3374 13.72C57.8894 13.9867 57.532 14.36 57.2654 14.84C57.0094 15.3093 56.8814 15.8427 56.8814 16.44C56.8814 17.0373 57.0094 17.576 57.2654 18.056C57.532 18.5253 57.8894 18.8933 58.3374 19.16C58.796 19.4267 59.308 19.56 59.8734 19.56ZM73.9884 23V9.864H78.8524V23H73.9884ZM76.4844 7.16C75.7164 7.16 75.0657 6.89333 74.5324 6.36C73.999 5.816 73.7324 5.17067 73.7324 4.424C73.7324 3.67733 73.999 3.032 74.5324 2.488C75.0764 1.93333 75.727 1.656 76.4844 1.656C76.9857 1.656 77.4444 1.784 77.8604 2.04C78.2764 2.28533 78.6124 2.616 78.8684 3.032C79.1244 3.448 79.2524 3.912 79.2524 4.424C79.2524 5.17067 78.9804 5.816 78.4364 6.36C77.8924 6.89333 77.2417 7.16 76.4844 7.16ZM103.467 9.48C104.459 9.48 105.334 9.688 106.091 10.104C106.849 10.5093 107.441 11.1387 107.867 11.992C108.305 12.8453 108.523 13.944 108.523 15.288V23H103.739V16.024C103.739 15.1067 103.601 14.3653 103.323 13.8C103.046 13.2347 102.497 12.952 101.675 12.952C101.185 12.952 100.753 13.08 100.379 13.336C100.006 13.592 99.718 13.9493 99.5154 14.408C99.3127 14.856 99.2114 15.3947 99.2114 16.024V23H94.7474V16.024C94.7474 15.1067 94.5927 14.3653 94.2834 13.8C93.9847 13.2347 93.4514 12.952 92.6834 12.952C92.1927 12.952 91.7607 13.08 91.3874 13.336C91.014 13.5813 90.726 13.9333 90.5234 14.392C90.3314 14.84 90.2354 15.384 90.2354 16.024V23H85.4034V9.864H90.2354V11.736C90.3634 11.4053 90.6407 11.0693 91.0674 10.728C91.5047 10.376 92.0434 10.0827 92.6834 9.848C93.3234 9.60267 94.0007 9.48 94.7154 9.48C95.494 9.48 96.1447 9.59733 96.6674 9.832C97.19 10.056 97.6167 10.36 97.9474 10.744C98.2887 11.128 98.5607 11.544 98.7634 11.992C98.9127 11.608 99.206 11.224 99.6434 10.84C100.091 10.4453 100.646 10.12 101.307 9.864C101.979 9.608 102.699 9.48 103.467 9.48ZM124.733 23V20.872C124.637 21.0853 124.392 21.3947 123.997 21.8C123.613 22.2053 123.101 22.5733 122.461 22.904C121.821 23.224 121.074 23.384 120.221 23.384C118.941 23.384 117.821 23.0747 116.861 22.456C115.901 21.8267 115.154 20.9893 114.621 19.944C114.088 18.888 113.821 17.72 113.821 16.44C113.821 15.16 114.088 13.9973 114.621 12.952C115.154 11.896 115.901 11.0533 116.861 10.424C117.821 9.79467 118.941 9.48 120.221 9.48C121.042 9.48 121.762 9.61333 122.381 9.88C123 10.136 123.501 10.4453 123.885 10.808C124.269 11.16 124.536 11.4853 124.685 11.784V9.864H129.517V23H124.733ZM118.589 16.44C118.589 17.0373 118.728 17.576 119.005 18.056C119.282 18.5253 119.65 18.8933 120.109 19.16C120.578 19.4267 121.096 19.56 121.661 19.56C122.248 19.56 122.765 19.4267 123.213 19.16C123.661 18.8933 124.013 18.5253 124.269 18.056C124.536 17.576 124.669 17.0373 124.669 16.44C124.669 15.8427 124.536 15.3093 124.269 14.84C124.013 14.36 123.661 13.9867 123.213 13.72C122.765 13.4427 122.248 13.304 121.661 13.304C121.096 13.304 120.578 13.4427 120.109 13.72C119.65 13.9867 119.282 14.36 119.005 14.84C118.728 15.3093 118.589 15.8427 118.589 16.44ZM140.667 23H135.787V0.983999H140.667V23Z" fill="#404040"/>
<mask id="path-2-inside-1_4603_3481" fill="white">
<path fill-rule="evenodd" clip-rule="evenodd" d="M150.75 23C153.511 23 155.75 20.7614 155.75 18C155.75 15.2386 153.511 13 150.75 13C147.989 13 145.75 15.2386 145.75 18C145.75 20.2156 147.191 22.0947 149.187 22.7509C149.209 22.6708 149.232 22.5918 149.257 22.5139C148.676 21.8379 148.675 21.1806 148.675 20.8498L148.675 20.8495C148.678 19.9562 148.946 19.1361 149.631 18.5419C150.313 17.9503 151.388 17.5998 152.967 17.5998H154.36C154.43 17.5998 154.485 17.6558 154.485 17.7248V18.4193V18.4264L154.485 18.4264C154.397 19.9568 153.976 21.0325 153.284 21.7253C152.59 22.4194 151.642 22.7109 150.541 22.7109H149.494C149.483 22.7109 149.471 22.7092 149.459 22.7059C149.448 22.7446 149.437 22.7837 149.427 22.823C149.848 22.9384 150.292 23 150.75 23ZM149.951 21.6353C149.783 21.8874 149.647 22.1611 149.541 22.4551L149.547 22.4609H150.541C151.599 22.4609 152.474 22.1816 153.107 21.5486C153.74 20.9149 154.149 19.9084 154.235 18.4157V17.8498H152.967C151.42 17.8498 150.414 18.1938 149.795 18.7307C149.179 19.2649 148.927 20.0072 148.925 20.85V20.8508C148.925 21.1441 148.925 21.6737 149.356 22.2388C149.46 21.9766 149.588 21.7287 149.743 21.4966C150.148 20.8891 150.731 20.397 151.532 20.0412C151.595 20.0131 151.669 20.0415 151.697 20.1046C151.725 20.1677 151.697 20.2416 151.633 20.2696C150.872 20.6082 150.327 21.0709 149.951 21.6353Z"/>
</mask>
<path fill-rule="evenodd" clip-rule="evenodd" d="M150.75 23C153.511 23 155.75 20.7614 155.75 18C155.75 15.2386 153.511 13 150.75 13C147.989 13 145.75 15.2386 145.75 18C145.75 20.2156 147.191 22.0947 149.187 22.7509C149.209 22.6708 149.232 22.5918 149.257 22.5139C148.676 21.8379 148.675 21.1806 148.675 20.8498L148.675 20.8495C148.678 19.9562 148.946 19.1361 149.631 18.5419C150.313 17.9503 151.388 17.5998 152.967 17.5998H154.36C154.43 17.5998 154.485 17.6558 154.485 17.7248V18.4193V18.4264L154.485 18.4264C154.397 19.9568 153.976 21.0325 153.284 21.7253C152.59 22.4194 151.642 22.7109 150.541 22.7109H149.494C149.483 22.7109 149.471 22.7092 149.459 22.7059C149.448 22.7446 149.437 22.7837 149.427 22.823C149.848 22.9384 150.292 23 150.75 23ZM149.951 21.6353C149.783 21.8874 149.647 22.1611 149.541 22.4551L149.547 22.4609H150.541C151.599 22.4609 152.474 22.1816 153.107 21.5486C153.74 20.9149 154.149 19.9084 154.235 18.4157V17.8498H152.967C151.42 17.8498 150.414 18.1938 149.795 18.7307C149.179 19.2649 148.927 20.0072 148.925 20.85V20.8508C148.925 21.1441 148.925 21.6737 149.356 22.2388C149.46 21.9766 149.588 21.7287 149.743 21.4966C150.148 20.8891 150.731 20.397 151.532 20.0412C151.595 20.0131 151.669 20.0415 151.697 20.1046C151.725 20.1677 151.697 20.2416 151.633 20.2696C150.872 20.6082 150.327 21.0709 149.951 21.6353Z" fill="#748C70"/>
<path d="M149.187 22.7509L149.109 22.9884L149.36 23.071L149.429 22.8156L149.187 22.7509ZM149.257 22.5139L149.495 22.5908L149.538 22.4572L149.447 22.3508L149.257 22.5139ZM148.675 20.8498L148.425 20.8495V20.8498H148.675ZM148.675 20.8495L148.425 20.8488L148.425 20.8491L148.675 20.8495ZM149.631 18.5419L149.795 18.7307L149.631 18.5419ZM154.485 18.4264L154.472 18.6761L154.735 18.6907V18.4264H154.485ZM154.485 18.4264L154.499 18.1768L154.25 18.163L154.236 18.4121L154.485 18.4264ZM153.284 21.7253L153.46 21.9021L153.284 21.7253ZM149.459 22.7059L149.53 22.466L149.29 22.3959L149.22 22.6354L149.459 22.7059ZM149.427 22.823L149.185 22.7587L149.121 22.9986L149.361 23.0641L149.427 22.823ZM149.541 22.4551L149.306 22.3703L149.253 22.5164L149.361 22.6283L149.541 22.4551ZM149.951 21.6353L149.743 21.4966L149.951 21.6353ZM149.547 22.4609L149.367 22.6342L149.44 22.7109H149.547V22.4609ZM153.107 21.5486L153.284 21.7253H153.284L153.107 21.5486ZM154.235 18.4157L154.485 18.4301L154.485 18.4229V18.4157H154.235ZM154.235 17.8498H154.485V17.5998H154.235V17.8498ZM149.795 18.7307L149.631 18.5419H149.631L149.795 18.7307ZM148.925 20.85L148.675 20.8493V20.85H148.925ZM148.925 20.8508L149.175 20.8508V20.8508H148.925ZM149.356 22.2388L149.157 22.3904L149.425 22.7421L149.588 22.331L149.356 22.2388ZM149.743 21.4966L149.535 21.358H149.535L149.743 21.4966ZM151.532 20.0412L151.633 20.2696H151.633L151.532 20.0412ZM151.633 20.2696L151.532 20.0412L151.633 20.2696ZM155.5 18C155.5 20.6234 153.373 22.75 150.75 22.75V23.25C153.649 23.25 156 20.8995 156 18H155.5ZM150.75 13.25C153.373 13.25 155.5 15.3766 155.5 18H156C156 15.1005 153.649 12.75 150.75 12.75V13.25ZM146 18C146 15.3766 148.127 13.25 150.75 13.25V12.75C147.851 12.75 145.5 15.1005 145.5 18H146ZM149.265 22.5134C147.369 21.8899 146 20.1045 146 18H145.5C145.5 20.3268 147.013 22.2994 149.109 22.9884L149.265 22.5134ZM149.429 22.8156C149.449 22.7395 149.471 22.6645 149.495 22.5908L149.019 22.437C148.993 22.519 148.968 22.6021 148.946 22.6862L149.429 22.8156ZM149.447 22.3508C148.926 21.7453 148.925 21.1653 148.925 20.8498H148.425C148.425 21.1959 148.425 21.9306 149.068 22.6769L149.447 22.3508ZM148.925 20.8502L148.925 20.8498L148.425 20.8491L148.425 20.8495L148.925 20.8502ZM148.925 20.8502C148.927 20.0073 149.179 19.2649 149.795 18.7307L149.468 18.353C148.714 19.0072 148.428 19.9051 148.425 20.8488L148.925 20.8502ZM149.795 18.7307C150.414 18.1938 151.42 17.8498 152.967 17.8498V17.3498C151.356 17.3498 150.212 17.7068 149.468 18.353L149.795 18.7307ZM152.967 17.8498H154.36V17.3498H152.967V17.8498ZM154.36 17.8498C154.291 17.8498 154.235 17.7939 154.235 17.7248H154.735C154.735 17.5177 154.568 17.3498 154.36 17.3498V17.8498ZM154.235 17.7248V18.4193H154.735V17.7248H154.235ZM154.235 18.4193V18.4264H154.735V18.4193H154.235ZM154.499 18.1768L154.499 18.1768L154.471 18.676L154.472 18.6761L154.499 18.1768ZM154.236 18.4121C154.15 19.9068 153.741 20.9144 153.107 21.5486L153.46 21.9021C154.212 21.1507 154.645 20.0068 154.735 18.4408L154.236 18.4121ZM153.107 21.5486C152.474 22.1816 151.599 22.4609 150.541 22.4609V22.9609C151.685 22.9609 152.706 22.6571 153.46 21.9021L153.107 21.5486ZM150.541 22.4609H149.494V22.9609H150.541V22.4609ZM149.494 22.4609C149.506 22.4609 149.518 22.4627 149.53 22.466L149.389 22.9459C149.423 22.9558 149.459 22.9609 149.494 22.9609V22.4609ZM149.22 22.6354C149.208 22.6762 149.196 22.7173 149.185 22.7587L149.668 22.8873C149.678 22.85 149.688 22.813 149.699 22.7765L149.22 22.6354ZM150.75 22.75C150.314 22.75 149.893 22.6914 149.493 22.5819L149.361 23.0641C149.803 23.1853 150.269 23.25 150.75 23.25V22.75ZM149.776 22.5398C149.876 22.2633 150.003 22.0079 150.159 21.774L149.743 21.4966C149.562 21.7669 149.418 22.0589 149.306 22.3703L149.776 22.5398ZM149.727 22.2877L149.722 22.2818L149.361 22.6283L149.367 22.6342L149.727 22.2877ZM150.541 22.2109H149.547V22.7109H150.541V22.2109ZM152.93 21.3719C152.358 21.9439 151.556 22.2109 150.541 22.2109V22.7109C151.642 22.7109 152.59 22.4194 153.284 21.7253L152.93 21.3719ZM153.986 18.4013C153.902 19.8582 153.505 20.7966 152.93 21.3719L153.284 21.7253C153.976 21.0331 154.397 19.9585 154.485 18.4301L153.986 18.4013ZM153.985 17.8498V18.4157H154.485V17.8498H153.985ZM152.967 18.0998H154.235V17.5998H152.967V18.0998ZM149.959 18.9196C150.515 18.4372 151.452 18.0998 152.967 18.0998V17.5998C151.388 17.5998 150.313 17.9503 149.631 18.5419L149.959 18.9196ZM149.175 20.8507C149.177 20.0585 149.412 19.3939 149.959 18.9196L149.631 18.5419C148.947 19.136 148.678 19.956 148.675 20.8493L149.175 20.8507ZM149.175 20.8508V20.85H148.675V20.8508H149.175ZM149.555 22.0873C149.176 21.5904 149.175 21.1318 149.175 20.8508L148.675 20.8508C148.675 21.1564 148.674 21.757 149.157 22.3904L149.555 22.0873ZM149.535 21.358C149.369 21.6056 149.234 21.8692 149.123 22.1467L149.588 22.331C149.686 22.084 149.806 21.8518 149.951 21.6353L149.535 21.358ZM151.43 19.8127C150.591 20.1859 149.968 20.7073 149.535 21.358L149.951 21.6353C150.327 21.0709 150.872 20.6082 151.633 20.2696L151.43 19.8127ZM151.925 20.0031C151.841 19.8138 151.62 19.7286 151.43 19.8127L151.633 20.2696C151.57 20.2976 151.496 20.2692 151.468 20.2061L151.925 20.0031ZM151.735 20.4981C151.924 20.4139 152.009 20.1923 151.925 20.0031L151.468 20.2061C151.44 20.1431 151.469 20.0692 151.532 20.0412L151.735 20.4981ZM150.159 21.774C150.506 21.2528 151.012 20.8193 151.735 20.4981L151.532 20.0412C150.731 20.397 150.148 20.8891 149.743 21.4966L150.159 21.774Z" fill="white" mask="url(#path-2-inside-1_4603_3481)"/>
</svg>
